<svg width="50" height="50" viewBox="0 0 50 50" fill="none" xmlns="http://www.w3.org/2000/svg">
<path d="M25 50C38.8071 50 50 38.8071 50 25C50 11.1929 38.8071 0 25 0C11.1929 0 0 11.1929 0 25C0 38.8071 11.1929 50 25 50Z" fill="white"/>
<path d="M27.0028 14.3564H9.46339L9 17.037H27.4662L27.0028 14.3564Z" fill="#0092ED"/>
<path d="M24.1316 11H12.3384L11.875 13.4475H24.595L24.1316 11Z" fill="#0092ED"/>
<path d="M10.1602 18.2959L13.1954 38.4584H23.251L26.2863 18.2959H10.1602ZM15.7904 29.5542C12.5235 28.6918 12.4771 23.9134 14.0758 25.7548C14.8404 26.6406 15.6977 26.9203 16.1148 27.0835C15.7441 27.876 15.5587 28.6918 15.7904 29.5542ZM18.2001 24.8924C17.6671 25.1721 17.0416 25.6849 16.5782 26.3143C11.4577 23.8202 15.9989 22.3051 18.2001 24.8924ZM18.5939 25.5218C19.2427 25.1022 20.2158 24.9623 21.1658 25.3819C21.3743 25.4751 21.4206 25.5684 21.3743 25.8015C20.6329 28.5286 18.4318 27.9925 17.3196 30.8129C16.8562 32.0483 14.8868 27.9226 18.5939 25.5218ZM23.112 28.6685C21.9304 34.589 14.7014 32.4679 20.0536 29.158C21.4902 28.2722 22.4169 26.4774 22.4169 26.4774C22.7645 26.4308 23.2511 27.3865 23.112 28.6685Z" fill="#0092ED"/>
<path fill-rule="evenodd" clip-rule="evenodd" d="M29 24.1911C31.1908 23.9755 33.3011 23.9092 35.5081 23.9092C37.6772 23.9092 39.8377 24.0154 42 24.1911L40.0669 38.386C38.891 38.9498 37.1028 38.9996 35.5725 38.9996C34.171 38.9996 32.2701 38.9498 31.0136 38.4026L29 24.1911ZM40.0186 29.3815L40.5663 25.3685C38.8824 25.2665 37.195 25.2026 35.5081 25.2026C33.1239 25.2026 31.3519 25.3021 30.4498 25.3685L32.1574 37.4076C32.5923 37.5071 33.4944 37.6564 35.1053 37.6729C34.1549 37.2584 33.5105 36.7941 33.5105 36.7941L32.4312 29.3649C32.4312 29.3649 33.72 28.0383 35.5081 28.5524C36.6479 28.8811 37.3432 29.239 38.2627 29.4644C38.7943 29.5473 39.3581 29.5639 40.0186 29.3815Z" fill="#0092ED"/>
</svg>
