<svg width="50" height="50" viewBox="0 0 50 50" fill="none" xmlns="http://www.w3.org/2000/svg">
<path d="M25 50C38.8071 50 50 38.8071 50 25C50 11.1929 38.8071 0 25 0C11.1929 0 0 11.1929 0 25C0 38.8071 11.1929 50 25 50Z" fill="white"/>
<path d="M16.3116 26.2804L18.3218 16.1753C18.4002 15.7244 19.0267 15.7244 19.1312 16.1753L21.3764 26.2804H23.6216C23.9349 26.2804 24.2221 26.4926 24.3526 26.7844L25.423 29.861C26.3629 27.3414 28.2426 21.7716 29.0519 19.3315C29.1825 18.9602 29.7046 18.9602 29.809 19.3315L31.9759 26.2804H38.085C40.748 22.2225 41.7662 17.8197 38.2156 14.1861C36.5186 12.4622 34.2995 11.5869 32.0804 11.5869C26.4934 11.5869 25.0836 15.5388 25.0053 15.8305C24.927 15.5653 23.4911 11.5869 17.9302 11.5869C15.7111 11.5869 13.492 12.4622 11.795 14.1861C8.21834 17.8197 9.26263 22.196 11.9256 26.2804H16.3116Z" fill="#0092ED"/>
<path d="M31.4278 27.8182C31.0884 27.8182 30.8012 27.5795 30.6968 27.2612L29.4437 22.9645C28.7127 25.2985 26.7024 30.6031 25.8148 32.884C25.6842 33.2553 25.1621 33.2553 25.0054 32.884L23.0996 27.8182H20.7499C20.3844 27.8182 20.0712 27.553 19.9928 27.1816L18.7397 20.6836L17.6693 27.1551C17.6171 27.5264 17.2777 27.7917 16.9122 27.7917H12.9961C16.5989 32.5127 21.977 36.5441 24.0917 38.0294C24.6138 38.4007 24.7966 38.5864 24.9793 38.5864C25.1621 38.5599 25.3448 38.4007 25.867 38.0294C27.9817 36.5441 33.3597 32.5127 36.9625 27.7917H31.4278V27.8182Z" fill="#0092ED"/>
</svg>
