<svg width="50" height="50" viewBox="0 0 50 50" fill="none" xmlns="http://www.w3.org/2000/svg">
<path d="M25 50C38.8071 50 50 38.8071 50 25C50 11.1929 38.8071 0 25 0C11.1929 0 0 11.1929 0 25C0 38.8071 11.1929 50 25 50Z" fill="white"/>
<path d="M19.4842 22.1422C18.183 21.5819 17.8436 19.9569 18.4093 19.6207C18.975 19.2845 20.8985 18.3319 20.8419 16.0905C20.7854 13.8491 19.0882 12 16.4859 12C13.6572 12 8 15.25 8 21.9741C8 30.4353 13.0349 29.7629 13.0349 29.7629C17.5607 29.7629 17.2779 25.8405 16.8819 24.6078C16.599 23.6552 17.5607 23.2629 18.579 23.2629C18.8619 23.2629 19.2013 23.2629 19.7671 23.431C21.5774 23.8793 22.822 25.6724 22.822 27.6336V37.4397C22.822 37.7759 23.1048 38 23.3877 38C23.7271 38 23.9534 37.7198 23.9534 37.4397V27.5776C23.9534 25.2241 22.4825 23.2629 20.3894 22.4784C20.2196 22.4224 19.5973 22.1983 19.4842 22.1422Z" fill="#0092ED"/>
<path d="M30.5161 22.1422C31.8173 21.5819 32.1567 19.9569 31.591 19.6207C31.0252 19.2845 29.1018 18.3319 29.1584 16.0905C29.2149 13.8491 30.9121 12 33.5144 12C36.343 12 42.0003 15.25 42.0003 21.9741C42.0003 30.4353 36.9653 29.7629 36.9653 29.7629C32.4396 29.7629 32.7224 25.8405 33.1184 24.6078C33.4013 23.6552 32.4396 23.2629 31.4213 23.2629C31.1384 23.2629 30.799 23.2629 30.2332 23.431C28.4229 23.8793 27.1783 25.6724 27.1783 27.6336V37.4397C27.1783 37.7759 26.8955 38 26.6126 38C26.2732 38 26.0469 37.7198 26.0469 37.4397V27.5776C26.0469 25.2241 27.5178 23.2629 29.6109 22.4784C29.7807 22.4224 30.4029 22.1983 30.5161 22.1422Z" fill="#0092ED"/>
</svg>
