<svg width="50" height="50" viewBox="0 0 50 50" fill="none" xmlns="http://www.w3.org/2000/svg">
<path d="M25 50C38.8071 50 50 38.8071 50 25C50 11.1929 38.8071 0 25 0C11.1929 0 0 11.1929 0 25C0 38.8071 11.1929 50 25 50Z" fill="white"/>
<path d="M30.301 25.781C29.4986 25.069 28.4096 20.9264 28.2377 18.9199C28.0657 16.7192 28.8681 14.1948 30.5303 13.0297C31.7912 12.1235 33.658 12 34.6437 12C35.6294 12 38.0937 12 39.4142 12.8355C41.019 14.3243 38.9556 14.0654 37.6947 17.0428C36.4338 20.0202 35.4021 22.8682 33.0522 24.7453C31.7339 25.781 30.7596 26.1693 30.301 25.781Z" fill="#0092ED"/>
<path d="M27.2314 15.1819C27.6412 14.2076 29.212 12.5297 30.3048 12.3132C30.3731 12.3132 30.3731 12.2591 30.3048 12.205C29.0754 11.8802 27.0265 11.9885 26.2069 12.205C26.0703 12.2591 26.0703 12.3132 26.0703 12.3132C26.4801 12.8545 27.0265 14.5324 27.1631 15.0737C27.1631 15.2361 27.2314 15.2361 27.2314 15.1819Z" fill="#0092ED"/>
<path d="M28.1633 25.6837C27.3098 24.1688 26.2733 22.1085 26.0904 16.7154C26.0904 15.0187 25.1149 12.8978 24.5662 12.3524C24.0175 11.8071 17.6768 11.3223 13.592 15.5641C10.2388 19.0181 9.62907 22.1691 10.1778 26.9563C10.1778 26.9563 10.7875 31.6828 10.9704 33.6219C11.1533 35.561 12.4336 37.0759 13.0433 36.5306C14.9942 34.8338 17.0062 32.8947 19.9936 31.4404C23.8956 29.5013 25.8465 28.7136 27.1878 27.441C28.0414 26.5321 28.3462 26.1079 28.1633 25.6837Z" fill="#0092ED"/>
</svg>
