<?xml version="1.0" ?><!DOCTYPE svg  PUBLIC '-//W3C//DTD SVG 1.1//EN'  'http://www.w3.org/Graphics/SVG/1.1/DTD/svg11.dtd'><svg height="512px" style="enable-background:new 0 0 512 512;" version="1.1" viewBox="0 0 512 512" width="512px" xml:space="preserve" xmlns="http://www.w3.org/2000/svg" xmlns:xlink="http://www.w3.org/1999/xlink"><style type="text/css">
<![CDATA[
	.st0{display:inline;}
	.st1{fill:none;stroke:#000000;stroke-width:16;stroke-linecap:round;stroke-linejoin:round;stroke-miterlimit:10;}
	.st2{display:none;}
]]>
</style><g class="st2" id="Layer"><g class="st0"><polyline class="st1" points="352,233 352,404 108,404 108,160 279,160   "/><g><polyline class="st1" points="246.794,265.037 403.627,108 287.661,108 404,108 404,224    "/><g><path d="M229.99,274c1.16,0,3.392,0.285,5.304,2.197c1.911,1.911,2.196,4.143,2.196,5.303s-0.286,3.392-2.196,5.303      c-1.912,1.912-4.144,2.197-5.304,2.197s-3.392-0.285-5.303-2.196c-1.912-1.911-2.197-4.144-2.197-5.304s0.285-3.393,2.197-5.304      C226.599,274.285,228.83,274,229.99,274 M229.99,258c-6.014,0-12.028,2.294-16.617,6.883c-9.177,9.177-9.177,24.057,0,33.234      c4.588,4.588,10.603,6.883,16.617,6.883s12.028-2.295,16.617-6.883c9.178-9.178,9.178-24.058,0-33.234      C242.019,260.294,236.004,258,229.99,258L229.99,258z"/></g></g></g></g><g id="Layer_copy"><g><path d="M352,412H108c-4.418,0-8-3.582-8-8V160c0-4.418,3.582-8,8-8h171c4.418,0,8,3.582,8,8s-3.582,8-8,8H116v228h228V233    c0-4.418,3.582-8,8-8s8,3.582,8,8v171C360,408.418,356.418,412,352,412z"/></g><path d="M404,100H287.661c-4.418,0-8,3.582-8,8s3.582,8,8,8h96.67L241.133,259.384c-0.317,0.317-0.593,0.659-0.845,1.012   c-3.243-1.582-6.767-2.396-10.298-2.396c-6.014,0-12.028,2.294-16.617,6.883c-9.177,9.177-9.177,24.057,0,33.234   c4.588,4.588,10.603,6.883,16.617,6.883s12.028-2.295,16.617-6.883c7.162-7.162,8.708-17.787,4.692-26.474   c0.406-0.278,0.794-0.593,1.155-0.953L396,126.958V224c0,4.418,3.582,8,8,8s8-3.582,8-8V108C412,103.582,408.418,100,404,100z    M235.294,286.803c-1.912,1.912-4.144,2.197-5.304,2.197s-3.392-0.285-5.303-2.196c-1.912-1.911-2.197-4.144-2.197-5.304   s0.285-3.393,2.197-5.304c1.911-1.911,4.143-2.196,5.303-2.196s3.392,0.285,5.304,2.197c1.911,1.911,2.196,4.143,2.196,5.303   S237.205,284.892,235.294,286.803z"/></g></svg>