<svg width="25" height="33" viewBox="0 0 25 33" fill="none" xmlns="http://www.w3.org/2000/svg">
<path d="M0.348404 8.73335C0.540823 8.73335 0.696809 8.55722 0.696809 8.33994C0.696809 8.12267 0.540823 7.94654 0.348404 7.94654C0.155986 7.94654 0 8.12267 0 8.33994C0 8.55722 0.155986 8.73335 0.348404 8.73335Z" fill="white"/>
<path d="M0.348404 7.1444C0.540823 7.1444 0.696809 6.96819 0.696809 6.75082C0.696809 6.53344 0.540823 6.35723 0.348404 6.35723C0.155986 6.35723 0 6.53344 0 6.75082C0 6.96819 0.155986 7.1444 0.348404 7.1444Z" fill="white"/>
<path d="M1.75384 7.1444C1.94626 7.1444 2.10224 6.96819 2.10224 6.75082C2.10224 6.53344 1.94626 6.35723 1.75384 6.35723C1.56142 6.35723 1.40543 6.53344 1.40543 6.75082C1.40543 6.96819 1.56142 7.1444 1.75384 7.1444Z" fill="white"/>
<path d="M8.78385 5.55509C8.97627 5.55509 9.13226 5.37888 9.13226 5.16151C9.13226 4.94414 8.97627 4.76792 8.78385 4.76792C8.59143 4.76792 8.43545 4.94414 8.43545 5.16151C8.43545 5.37888 8.59143 5.55509 8.78385 5.55509Z" fill="white"/>
<path d="M1.75384 5.55509C1.94626 5.55509 2.10224 5.37888 2.10224 5.16151C2.10224 4.94414 1.94626 4.76792 1.75384 4.76792C1.56142 4.76792 1.40543 4.94414 1.40543 5.16151C1.40543 5.37888 1.56142 5.55509 1.75384 5.55509Z" fill="white"/>
<path d="M8.78385 7.1444C8.97627 7.1444 9.13226 6.96819 9.13226 6.75082C9.13226 6.53344 8.97627 6.35723 8.78385 6.35723C8.59143 6.35723 8.43545 6.53344 8.43545 6.75082C8.43545 6.96819 8.59143 7.1444 8.78385 7.1444Z" fill="white"/>
<path d="M10.1921 7.1444C10.3846 7.1444 10.5405 6.96819 10.5405 6.75082C10.5405 6.53344 10.3846 6.35723 10.1921 6.35723C9.99972 6.35723 9.84373 6.53344 9.84373 6.75082C9.84373 6.96819 9.99972 7.1444 10.1921 7.1444Z" fill="white"/>
<path d="M10.1921 8.73335C10.3846 8.73335 10.5405 8.55722 10.5405 8.33994C10.5405 8.12267 10.3846 7.94654 10.1921 7.94654C9.99972 7.94654 9.84373 8.12267 9.84373 8.33994C9.84373 8.55722 9.99972 8.73335 10.1921 8.73335Z" fill="white"/>
<path d="M10.1921 10.3223C10.3846 10.3223 10.5405 10.1462 10.5405 9.92907C10.5405 9.7119 10.3846 9.53584 10.1921 9.53584C9.99972 9.53584 9.84373 9.7119 9.84373 9.92907C9.84373 10.1462 9.99972 10.3223 10.1921 10.3223Z" fill="white"/>
<path d="M0.348404 10.3223C0.540823 10.3223 0.696809 10.1462 0.696809 9.92907C0.696809 9.7119 0.540823 9.53584 0.348404 9.53584C0.155986 9.53584 0 9.7119 0 9.92907C0 10.1462 0.155986 10.3223 0.348404 10.3223Z" fill="white"/>
<path d="M7.73194 1.58931C6.95425 1.58931 6.32587 2.29953 6.32587 3.17853V6.25852H7.0289V3.17853C7.0289 2.74255 7.3462 2.38392 7.73194 2.38392C8.11767 2.38392 8.43497 2.74255 8.43497 3.17853V3.57232C8.43497 3.79031 8.59051 3.96611 8.78337 3.96611C8.97624 3.96611 9.13178 3.79031 9.13178 3.57232V3.17853C9.138 2.29953 8.50341 1.58931 7.73194 1.58931Z" fill="white"/>
<path d="M7.73335 0C6.67569 0 5.7549 0.661012 5.27585 1.63847C4.79057 0.661012 3.86978 0 2.81213 0C1.26297 0 0 1.42751 0 3.17849V5.16152C0 5.37952 0.155538 5.55532 0.348405 5.55532C0.541272 5.55532 0.69681 5.37952 0.69681 5.16152V3.17849C0.69681 1.86349 1.64248 0.794621 2.8059 0.794621C3.96933 0.794621 4.915 1.86349 4.915 3.17849V6.25852H5.61803V3.17849C5.61803 1.86349 6.5637 0.794621 7.72713 0.794621C8.89055 0.794621 9.83622 1.86349 9.83622 3.17849V5.16152C9.83622 5.37952 9.99176 5.55532 10.1846 5.55532C10.3775 5.55532 10.533 5.37952 10.533 5.16152V3.17849C10.5455 1.42751 9.28251 0 7.73335 0Z" fill="white"/>
<path d="M2.8115 1.58931C2.03381 1.58931 1.40543 2.29953 1.40543 3.17853V3.57232C1.40543 3.79031 1.56097 3.96611 1.75384 3.96611C1.9467 3.96611 2.10224 3.79031 2.10224 3.57232V3.17853C2.10224 2.74255 2.41954 2.38392 2.80527 2.38392C3.19101 2.38392 3.51453 2.74255 3.51453 3.17853V6.25852H4.21756V3.17853C4.21756 2.29953 3.58918 1.58931 2.8115 1.58931Z" fill="white"/>
<path d="M23.7609 15.0203C23.5991 14.9359 23.4 14.9641 23.2631 15.0906L18.4041 19.6684V15.4985C18.4041 15.2946 18.2984 15.1047 18.1366 15.0203C17.9748 14.9359 17.7758 14.9641 17.6389 15.0906L12.7799 19.6684V15.4985C12.7799 15.2875 12.6679 15.0977 12.4999 15.0133C12.3319 14.9289 12.1328 14.9641 11.996 15.1047L9.05319 18.1495C8.94743 18.262 8.89143 18.4237 8.90388 18.5855L9.95531 32.4664C9.95531 32.7617 10.1668 32.9938 10.4219 32.9938H23.568C23.8293 32.9938 24.0346 32.7547 24.0346 32.4664V15.5055C24.0284 15.2946 23.9288 15.1117 23.7609 15.0203ZM15.5858 27.1714C15.5858 27.4667 15.3743 27.6988 15.1192 27.6988H12.3008C12.0395 27.6988 11.8342 27.4597 11.8342 27.1714V23.9859C11.8342 23.6906 12.0457 23.4586 12.3008 23.4586H15.1192C15.3805 23.4586 15.5858 23.6976 15.5858 23.9859V27.1714ZM21.2163 27.1714C21.2163 27.4667 21.0047 27.6988 20.7496 27.6988H17.9313C17.67 27.6988 17.4647 27.4597 17.4647 27.1714V23.9859C17.4647 23.6906 17.6762 23.4586 17.9313 23.4586H20.7496C21.011 23.4586 21.2163 23.6976 21.2163 23.9859V27.1714Z" fill="white"/>
<path d="M7.13725 8.0312C7.11859 7.75696 6.91328 7.546 6.67064 7.546H3.85851C3.61587 7.546 3.41056 7.75696 3.3919 8.0312L1.513 32.4246C1.50056 32.5723 1.54411 32.7199 1.63121 32.8254C1.71831 32.9379 1.84896 32.9942 1.97962 32.9942H8.54954C8.55576 32.9942 8.56198 32.9942 8.5682 32.9942C8.82951 32.9942 9.03482 32.7551 9.03482 32.4668C9.03482 32.4035 7.13725 8.0312 7.13725 8.0312Z" fill="white"/>
</svg>
