<svg width="23" height="23" viewBox="0 0 23 23" fill="none" xmlns="http://www.w3.org/2000/svg">
<g clip-path="url(#clip0_15799_37556)">
<path d="M16.8498 19.0778C16.1277 19.6039 14.5338 18.5542 13.7704 18.8341C12.9168 19.1797 12.3352 20.847 11.4403 20.9463C10.5699 20.8896 9.96894 19.1165 9.12301 18.9037C8.27709 18.6909 6.76706 19.6529 6.0359 19.2183C5.39501 18.718 5.91082 16.9604 5.31893 16.148C4.79281 15.4259 2.96169 15.3782 2.6161 14.5245C2.27051 13.6708 3.80504 12.5528 3.86177 11.6824C3.91851 10.812 2.41493 9.69653 2.6277 8.85061C2.84048 8.00468 4.76186 7.98663 5.35246 7.27997C5.8773 6.48305 5.27638 4.70996 5.99851 4.18384C6.72064 3.65772 8.31449 4.70738 9.07788 4.42756C9.99731 4.17223 10.5131 2.41462 11.4738 2.40559C12.2785 2.37207 12.8794 4.14516 13.7911 4.44819C14.5467 4.72673 16.0813 3.60872 16.8782 4.13355C17.5191 4.63388 17.0033 6.3915 17.5952 7.2039C18.1213 7.92603 19.9524 7.97374 20.298 8.8274C20.6436 9.68106 19.1091 10.7991 19.0523 11.6695C18.9956 12.5399 20.4992 13.6554 20.2864 14.5013C20.0736 15.3472 18.1522 15.3653 17.5616 16.0719C17.0613 16.7128 17.5719 18.5517 16.8498 19.0778Z" fill="#32D23C"/>
<path d="M15.1251 8.11261C14.9844 7.96246 14.7538 7.96246 14.6131 8.11261L10.5783 12.4335L8.3853 10.085C8.24465 9.93431 8.01558 9.93431 7.87389 10.085L7.10549 10.9018C6.96484 11.0508 6.96484 11.2961 7.10549 11.4463L10.3203 14.8882C10.4609 15.0373 10.69 15.0373 10.8322 14.8882L15.893 9.47443C16.0357 9.32428 16.0357 9.07842 15.893 8.92772L15.1251 8.11261Z" fill="white"/>
</g>
<defs>
<clipPath id="clip0_15799_37556">
<rect width="23" height="23" fill="white"/>
</clipPath>
</defs>
</svg>
