<svg width="21" height="28" viewBox="0 0 21 28" fill="none" xmlns="http://www.w3.org/2000/svg">
<g clip-path="url(#clip0_15778_37557)">
<path d="M16.7981 11.721C16.6679 11.5908 16.5376 11.8512 16.5376 11.9815C16.6679 12.2419 16.6679 12.3722 16.6679 12.6326C16.6679 14.0652 13.933 15.1071 10.4167 15.1071C7.03065 15.1071 4.16553 13.935 4.16553 12.6326C4.16553 12.3722 4.29577 12.2419 4.29577 11.9815C4.68646 11.721 4.426 11.5908 4.29577 11.721C3.6446 12.1117 3.25391 12.7629 3.25391 13.2838C3.25391 14.9768 6.50972 16.2792 10.5469 16.2792C14.5841 16.2792 17.84 14.9768 17.84 13.2838C17.84 12.6326 17.4493 12.1117 16.7981 11.721Z" fill="white"/>
<path d="M20.9674 14.8467C20.9674 14.0653 20.5767 13.4142 19.9256 12.763C19.6651 12.6328 19.4047 12.763 19.5349 13.0235C19.6651 13.2839 19.6651 13.5444 19.6651 13.8049C19.6651 16.1491 15.4977 17.9723 10.4186 17.9723C5.33953 17.9723 1.30233 16.1491 1.30233 13.9351C1.30233 13.6746 1.30233 13.4142 1.43256 13.1537C1.56279 12.763 1.30233 12.6328 1.04186 12.763C0.390698 13.4142 0 14.0653 0 14.8467C0 14.977 0 15.2374 0.130233 15.3677V15.4979C0.130233 15.4979 0.130233 15.6281 0.260465 15.7584C0.390698 16.4095 0.651163 17.0607 0.911628 17.5816C1.95349 19.7956 4.42791 23.5723 9.89767 27.6095C10.2884 27.87 10.6791 27.87 11.0698 27.6095C16.5395 23.5723 19.014 19.7956 20.0558 17.5816C20.3163 16.9304 20.5767 16.4095 20.707 15.7584C20.707 15.6281 20.8372 15.4979 20.8372 15.4979C20.8372 15.3677 20.8372 15.2374 20.9674 15.1072C20.9674 15.1072 20.9674 14.977 20.9674 14.8467Z" fill="white"/>
<path d="M10.5503 0C9.248 1.69302 5.99219 6.3814 5.99219 8.46512C5.99219 12.2419 10.2899 14.3256 13.2852 12.1116C14.4573 11.3302 15.1085 9.89767 15.1085 8.46512C15.1085 6.3814 11.7224 1.69302 10.5503 0Z" fill="white"/>
</g>
<defs>
<clipPath id="clip0_15778_37557">
<rect width="20.9674" height="28" fill="white"/>
</clipPath>
</defs>
</svg>
