<svg width="14" height="42" viewBox="0 0 14 42" fill="none" xmlns="http://www.w3.org/2000/svg">
<path d="M6.18672 38.8207C6.3524 38.8207 6.48672 38.6864 6.48672 38.5207C6.48672 38.355 6.3524 38.2207 6.18672 38.2207C6.02103 38.2207 5.88672 38.355 5.88672 38.5207C5.88672 38.6864 6.02103 38.8207 6.18672 38.8207Z" fill="white"/>
<path d="M5.1875 32.0205C5.46364 32.0205 5.6875 31.7967 5.6875 31.5205C5.6875 31.2444 5.46364 31.0205 5.1875 31.0205C4.91136 31.0205 4.6875 31.2444 4.6875 31.5205C4.6875 31.7967 4.91136 32.0205 5.1875 32.0205Z" fill="white"/>
<path d="M6.78906 28.8203C7.0652 28.8203 7.28906 28.5965 7.28906 28.3203C7.28906 28.0442 7.0652 27.8203 6.78906 27.8203C6.51292 27.8203 6.28906 28.0442 6.28906 28.3203C6.28906 28.5965 6.51292 28.8203 6.78906 28.8203Z" fill="white"/>
<path d="M6.0875 17.2209C6.58456 17.2209 6.9875 16.818 6.9875 16.3209C6.9875 15.8238 6.58456 15.4209 6.0875 15.4209C5.59044 15.4209 5.1875 15.8238 5.1875 16.3209C5.1875 16.818 5.59044 17.2209 6.0875 17.2209Z" fill="white"/>
<path d="M5.9875 25.1205C6.42933 25.1205 6.7875 24.7623 6.7875 24.3205C6.7875 23.8787 6.42933 23.5205 5.9875 23.5205C5.54567 23.5205 5.1875 23.8787 5.1875 24.3205C5.1875 24.7623 5.54567 25.1205 5.9875 25.1205Z" fill="white"/>
<path d="M7.48828 12.5203C8.04057 12.5203 8.48828 12.0278 8.48828 11.4203C8.48828 10.8128 8.04057 10.3203 7.48828 10.3203C6.936 10.3203 6.48828 10.8128 6.48828 11.4203C6.48828 12.0278 6.936 12.5203 7.48828 12.5203Z" fill="white"/>
<path d="M7.88828 21.5207C8.38534 21.5207 8.78828 21.1178 8.78828 20.6207C8.78828 20.1236 8.38534 19.7207 7.88828 19.7207C7.39123 19.7207 6.98828 20.1236 6.98828 20.6207C6.98828 21.1178 7.39123 21.5207 7.88828 21.5207Z" fill="white"/>
<path d="M7.48594 35.2209C7.70685 35.2209 7.88594 35.0418 7.88594 34.8209C7.88594 34.6 7.70685 34.4209 7.48594 34.4209C7.26502 34.4209 7.08594 34.6 7.08594 34.8209C7.08594 35.0418 7.26502 35.2209 7.48594 35.2209Z" fill="white"/>
<path d="M13.4875 26.5207C13.4875 24.2207 11.5875 15.8207 10.7875 13.2207C9.8875 10.6207 9.5875 5.2207 9.5875 5.2207C9.5875 5.2207 8.8875 5.6207 7.2875 5.6207C5.6875 5.6207 5.0875 5.2207 5.0875 5.2207C5.0875 5.2207 4.7875 10.5207 3.8875 13.2207C2.9875 15.8207 0.9875 24.2207 0.9875 26.5207C0.9875 28.8207 0.6875 36.1207 0.6875 38.1207C0.6875 40.1207 2.2875 40.9207 3.7875 41.1207C5.0875 41.3207 6.6875 41.3207 7.1875 41.3207C7.2875 41.3207 7.1875 41.3207 7.2875 41.3207C7.6875 41.3207 9.3875 41.3207 10.6875 41.1207C12.1875 40.9207 13.7875 40.1207 13.7875 38.1207C13.7875 36.1207 13.4875 28.8207 13.4875 26.5207ZM7.4875 9.8207C8.3875 9.8207 8.9875 10.5207 8.9875 11.4207C8.9875 12.3207 8.2875 13.0207 7.4875 13.0207C6.6875 13.0207 5.9875 12.3207 5.9875 11.4207C5.9875 10.5207 6.6875 9.8207 7.4875 9.8207ZM6.0875 14.9207C6.8875 14.9207 7.4875 15.5207 7.4875 16.3207C7.4875 17.1207 6.8875 17.7207 6.0875 17.7207C5.2875 17.7207 4.6875 17.1207 4.6875 16.3207C4.6875 15.5207 5.2875 14.9207 6.0875 14.9207ZM5.9875 23.0207C6.6875 23.0207 7.2875 23.6207 7.2875 24.3207C7.2875 25.0207 6.6875 25.6207 5.9875 25.6207C5.2875 25.6207 4.6875 25.0207 4.6875 24.3207C4.6875 23.6207 5.1875 23.0207 5.9875 23.0207ZM7.6875 28.3207C7.6875 28.8207 7.2875 29.3207 6.6875 29.3207C6.0875 29.3207 5.6875 28.9207 5.6875 28.3207C5.6875 27.7207 6.0875 27.3207 6.6875 27.3207C7.2875 27.3207 7.6875 27.7207 7.6875 28.3207ZM4.1875 31.5207C4.1875 31.0207 4.5875 30.5207 5.1875 30.5207C5.7875 30.5207 6.1875 30.9207 6.1875 31.5207C6.1875 32.0207 5.7875 32.5207 5.1875 32.5207C4.5875 32.5207 4.1875 32.1207 4.1875 31.5207ZM6.1875 39.3207C5.6875 39.3207 5.3875 38.9207 5.3875 38.5207C5.3875 38.1207 5.7875 37.7207 6.1875 37.7207C6.6875 37.7207 6.9875 38.1207 6.9875 38.5207C6.9875 38.9207 6.6875 39.3207 6.1875 39.3207ZM7.4875 35.7207C6.9875 35.7207 6.5875 35.3207 6.5875 34.8207C6.5875 34.3207 6.9875 33.9207 7.4875 33.9207C7.9875 33.9207 8.3875 34.3207 8.3875 34.8207C8.3875 35.3207 7.9875 35.7207 7.4875 35.7207ZM7.8875 22.0207C7.0875 22.0207 6.4875 21.4207 6.4875 20.6207C6.4875 19.8207 7.0875 19.2207 7.8875 19.2207C8.6875 19.2207 9.2875 19.8207 9.2875 20.6207C9.2875 21.4207 8.6875 22.0207 7.8875 22.0207Z" fill="white"/>
<path d="M7.28594 0.320312C5.78594 0.320312 4.58594 0.720313 4.58594 1.12031C4.58594 1.42031 4.58594 3.12031 4.58594 3.22031C4.58594 3.62031 4.58594 3.72031 4.88594 3.82031C6.08594 4.62031 9.98594 4.32031 9.98594 3.42031V1.22031C9.98594 0.720313 8.78594 0.320312 7.28594 0.320312Z" fill="white"/>
</svg>
