<svg width="23" height="21" viewBox="0 0 23 21" fill="none" xmlns="http://www.w3.org/2000/svg">
<path d="M21.7033 8.34662H20.2579H18.8974L14.1146 0.558206C13.7745 0.000296406 13.0518 -0.178234 12.4991 0.201144C11.9676 0.558206 11.7976 1.31696 12.159 1.89719L16.134 8.36894H6.84473L10.8198 1.89719C11.1599 1.33928 11.0111 0.580522 10.4797 0.201144C9.94824 -0.155918 9.22551 0.000296406 8.86414 0.558206L4.08133 8.34662H1.27542C0.573937 8.34662 0 8.94916 0 9.6856C0 10.422 0.573937 11.0246 1.27542 11.0246H1.40295L3.52864 19.661C3.71996 20.4421 4.40018 21 5.16543 21H17.8346C18.5998 21 19.28 20.4421 19.4713 19.661L21.597 11.0246H21.7246C22.4261 11.0246 23 10.422 23 9.6856C22.9787 8.94916 22.4048 8.34662 21.7033 8.34662ZM7.48244 17.9427C7.48244 18.389 7.14232 18.746 6.71718 18.746C6.29205 18.746 5.95194 18.389 5.95194 17.9427V11.9842C5.95194 11.5379 6.29205 11.1808 6.71718 11.1808C7.14232 11.1808 7.48244 11.5379 7.48244 11.9842V17.9427ZM10.4797 17.9427C10.4797 18.389 10.1396 18.746 9.71442 18.746C9.28928 18.746 8.94916 18.389 8.94916 17.9427V11.9842C8.94916 11.5379 9.28928 11.1808 9.71442 11.1808C10.1396 11.1808 10.4797 11.5379 10.4797 11.9842V17.9427ZM13.9445 17.9427C13.9445 18.389 13.6044 18.746 13.1793 18.746C12.7542 18.746 12.4141 18.389 12.4141 17.9427V11.9842C12.4141 11.5379 12.7542 11.1808 13.1793 11.1808C13.6044 11.1808 13.9445 11.5379 13.9445 11.9842V17.9427ZM16.9418 17.9427C16.9418 18.389 16.6017 18.746 16.1765 18.746C15.7514 18.746 15.4113 18.389 15.4113 17.9427V11.9842C15.4113 11.5379 15.7514 11.1808 16.1765 11.1808C16.6017 11.1808 16.9418 11.5379 16.9418 11.9842V17.9427Z" fill="#4D4D4D"/>
</svg>
