<svg width="38" height="36" viewBox="0 0 38 36" fill="none" xmlns="http://www.w3.org/2000/svg">
<path d="M0.587785 13.6657L18.5464 0.618033L36.5049 13.6657L29.6454 34.7773H7.44735L0.587785 13.6657Z" stroke="#0092ED"/>
<path d="M24.8942 25.9185L24.0169 25.334L27.0428 22.5887L28.5469 18.1429L24.6078 19.8078L21.2953 23.6868L23.5693 15.1141L19.1109 6.48828L14.939 14.565L16.1744 21.4019L14.1154 16.4071L8.79755 13.4669L8.54688 19.8433L13.5245 25.1038L12.7367 26.2019L11.161 25.6174L10.3374 27.123L12.3965 29.2484L14.939 28.8942L18.4484 30.4883L21.5281 29.4787L23.4976 29.9392L27.1861 27.123L25.4493 25.4226L24.8942 25.9185ZM16.1565 14.8484L17.6606 10.8809L17.6785 14.3879L21.3848 15.1495L17.7322 15.6455L17.4994 21.3665L16.1565 14.8484ZM9.3347 19.5776L12.3607 17.4344L11.1252 19.5599L13.4529 23.5097L9.3347 19.5776ZM21.2595 26.3613L19.2899 27.3001L16.6937 25.4757L14.5272 25.3872L16.8548 24.537L19.2899 25.9185L21.3132 25.334L23.2828 26.4322L21.2595 26.3613ZM22.3875 23.2617L24.93 20.4278L27.6337 19.1171L25.8611 20.9237C25.8611 20.9237 26.7206 22.0396 26.7206 22.1281C26.7206 22.2167 25.0196 21.5613 25.0196 21.5613L22.3875 23.2617Z" fill="#0092ED"/>
</svg>
