<svg width="25" height="17" viewBox="0 0 25 17" fill="none" xmlns="http://www.w3.org/2000/svg">
<path d="M10.2174 9.64023H0.869569C0.391306 9.64023 0 9.24943 0 8.77178C0 8.29413 0.391306 7.90332 0.869569 7.90332H10.2174C10.6957 7.90332 11.087 8.29413 11.087 8.77178C11.087 9.24943 10.6957 9.64023 10.2174 9.64023Z" fill="white"/>
<path fill-rule="evenodd" clip-rule="evenodd" d="M17.6101 8.77147C22.1536 8.77147 25.0014 4.38577 25.0014 4.38577C25.0014 4.38577 22.1971 -0.0216314 17.6101 7.99521e-05C12.784 7.99521e-05 10.2188 4.38577 10.2188 4.38577C10.2188 4.38577 12.6535 8.77147 17.6101 8.77147ZM20.8278 4.38662C20.8278 6.16127 19.3874 7.59992 17.6104 7.59992C15.8335 7.59992 14.393 6.16127 14.393 4.38662C14.393 2.61197 15.8335 1.17334 17.6104 1.17334C19.3874 1.17334 20.8278 2.61197 20.8278 4.38662Z" fill="white"/>
<path d="M17.6089 6.33969C18.6894 6.33969 19.5654 5.46484 19.5654 4.38567C19.5654 3.30649 18.6894 2.43164 17.6089 2.43164C16.5283 2.43164 15.6523 3.30649 15.6523 4.38567C15.6523 5.46484 16.5283 6.33969 17.6089 6.33969Z" fill="white"/>
<path d="M9.08699 2.30234H0.869569C0.391306 2.30234 0 1.91154 0 1.43389C0 0.956235 0.391306 0.56543 0.869569 0.56543H9.08699C9.56526 0.56543 9.95656 0.956235 9.95656 1.43389C9.95656 1.91154 9.56526 2.30234 9.08699 2.30234Z" fill="white"/>
<path d="M6.58698 5.97031H0.869569C0.391306 5.97031 0 5.5795 0 5.10185C0 4.6242 0.391306 4.2334 0.869569 4.2334H6.58698C7.06525 4.2334 7.45655 4.6242 7.45655 5.10185C7.45655 5.5795 7.06525 5.97031 6.58698 5.97031Z" fill="white"/>
<path d="M17.6088 13.3316H0.869569C0.391306 13.3316 0 12.9408 0 12.4632C0 11.9855 0.391306 11.5947 0.869569 11.5947H17.6088C18.087 11.5947 18.4783 11.9855 18.4783 12.4632C18.4783 12.9408 18.087 13.3316 17.6088 13.3316Z" fill="white"/>
<path d="M17.6088 17.0006H0.869569C0.391306 17.0006 0 16.6098 0 16.1321C0 15.6545 0.391306 15.2637 0.869569 15.2637H17.6088C18.087 15.2637 18.4783 15.6545 18.4783 16.1321C18.4783 16.6098 18.087 17.0006 17.6088 17.0006Z" fill="white"/>
</svg>
