<svg width="50" height="50" viewBox="0 0 50 50" fill="none" xmlns="http://www.w3.org/2000/svg">
<path d="M50 39.7385C50 45.4235 45.3951 50 39.7385 50H10.2615C4.57646 50 0 45.3951 0 39.7385V10.2615C0 4.60489 4.60489 0 10.2615 0H39.7385C45.4235 0 50 4.60489 50 10.2615V39.7385Z" fill="#1877F2"/>
<path d="M38.4567 13.7577H43.0616V6.48087H37.3197H36.1258C36.1258 6.48087 31.7768 6.36717 29.0195 9.97717C29.0195 9.97717 27.1435 11.768 27.115 16.9698V22.399H20.293V30.1022H27.115V49.9999H34.9888V30.1022H41.7825L42.7205 22.399H34.9888V16.9698C35.0172 16.3729 35.2731 13.7009 38.4567 13.7577Z" fill="white"/>
</svg>
