<svg width="39" height="36" viewBox="0 0 39 36" fill="none" xmlns="http://www.w3.org/2000/svg">
<path d="M27.3931 0C24.2353 0 21.408 1.31271 19.2098 3.73081C17.0089 1.31271 14.1698 0 11.025 0C4.46379 0 0 4.70689 0 11.7052C0 19.2207 5.20086 26.8758 17.4957 34.5982C18.5431 35.2603 19.8776 35.2603 20.925 34.5982C33.2172 26.8758 38.4207 19.2336 38.4207 11.7052C38.4181 4.70689 33.9543 0 27.3931 0ZM19.11 9.10324C19.5703 9.6179 20.3198 10.5 20.8577 11.2112C21.3284 11.8319 21.7267 12.4345 22.0577 12.9931C22.7302 14.1259 23.1077 15.0931 23.1077 15.75C23.1077 18.3362 21.2819 20.3922 19.1224 20.3922C16.9603 20.3922 15.1241 18.3491 15.1241 15.75C15.1241 15.2715 15.331 14.5733 15.7577 13.7327C16.244 12.8095 16.8103 11.9302 17.4517 11.1077C17.9845 10.4121 18.541 9.73945 19.11 9.10324ZM19.2543 31.1043C8.17758 24.1189 3.86896 17.4724 3.86896 11.7543C3.86896 6.85344 6.71637 3.98017 11.0767 3.98017C13.1483 3.98017 14.9715 4.80775 16.4586 6.43706C15.7991 7.1612 15.1526 7.93706 14.5422 8.73879C13.756 9.75258 13.0629 10.8336 12.4707 11.9715C11.7853 13.3293 11.3974 14.5965 11.3974 15.8121C11.3974 20.506 14.8655 24.375 19.2 24.375C23.5345 24.375 26.9976 20.491 26.9976 15.8074C26.9976 14.0488 26.1957 12.1629 24.8379 10.1276C24.5586 9.70861 24.2586 9.28447 23.9353 8.85258C23.3146 8.02499 22.5437 7.12218 21.8842 6.38511C21.9514 6.3308 22.0112 6.27155 22.0758 6.21982C22.125 6.17844 22.4431 5.92499 22.4896 5.89137C24.256 4.5181 25.5414 3.98017 27.4267 3.98017C31.7741 3.98017 34.6345 6.83792 34.6345 11.7543C34.6396 17.4724 30.3181 24.1086 19.2543 31.1043Z" fill="url(#paint0_linear_15768_37714)"/>
<path d="M21.6394 14.7305C22.4122 16.5705 21.7866 18.3002 20.0938 19.0362C20.0938 19.0362 21.6394 17.4538 21.6394 14.7305Z" fill="white" stroke="white"/>
<g style="mix-blend-mode:darken" opacity="0.5">
<path d="M16.4597 6.43685C17.5797 5.28759 18.7365 4.18459 19.2109 3.73051C18.5824 3.04841 18.1575 2.6988 18.0499 2.60742C17.0317 3.49065 15.0309 5.17936 15.3506 5.41652C15.7616 5.72141 16.2093 6.16372 16.4597 6.43685Z" fill="url(#paint1_linear_15768_37714)"/>
</g>
<g style="mix-blend-mode:darken" opacity="0.5">
<path d="M21.8844 6.38574C21.4033 6.79178 20.8809 7.26764 20.3042 7.82109C19.9628 8.14953 19.5439 8.6047 19.1094 9.10384C19.7042 9.77626 20.299 10.4875 20.8551 11.2116C21.1473 11.6021 21.4137 11.9849 21.6542 12.3521C21.7964 12.5719 22.324 12.6754 22.4559 12.5228C22.9033 12.0056 23.3326 11.5375 23.6818 11.2013C23.9145 10.9763 24.1395 10.7642 24.3568 10.5676C24.5223 10.4176 24.5507 9.71419 24.4007 9.49953C24.2507 9.28746 24.0956 9.0754 23.9352 8.86074C23.3171 8.03315 22.5439 7.12281 21.8844 6.38574Z" fill="url(#paint2_linear_15768_37714)"/>
</g>
<defs>
<linearGradient id="paint0_linear_15768_37714" x1="2.5761" y1="3.13768" x2="32.4956" y2="30.3339" gradientUnits="userSpaceOnUse">
<stop stop-color="white"/>
<stop offset="0.526042" stop-color="white"/>
<stop offset="1" stop-color="white"/>
</linearGradient>
<linearGradient id="paint1_linear_15768_37714" x1="18.188" y1="5.1487" x2="17.4769" y2="4.38588" gradientUnits="userSpaceOnUse">
<stop stop-opacity="0.14"/>
<stop offset="1" stop-opacity="0"/>
</linearGradient>
<linearGradient id="paint2_linear_15768_37714" x1="20.4274" y1="7.87216" x2="23.5456" y2="11.3529" gradientUnits="userSpaceOnUse">
<stop stop-color="#1A1A1A" stop-opacity="0.65"/>
<stop offset="0.583333" stop-color="white" stop-opacity="0"/>
</linearGradient>
</defs>
</svg>
