<svg width="50" height="50" viewBox="0 0 50 50" fill="none" xmlns="http://www.w3.org/2000/svg">
<path d="M50 39.7385C50 45.4235 45.3951 50 39.7385 50H10.2615C4.57646 50 0 45.3951 0 39.7385V10.2615C0 4.60489 4.60489 0 10.2615 0H39.7101C45.3951 0 49.9716 4.60489 49.9716 10.2615V39.7385H50Z" fill="#2867B2"/>
<path d="M7.50318 18.932H15.0074V43.065H7.50318V18.932ZM11.2553 6.93652C13.643 6.93652 15.6044 8.89787 15.6044 11.2856C15.6044 13.6733 13.643 15.6346 11.2553 15.6346C8.83917 15.6346 6.90625 13.7017 6.90625 11.2856C6.90625 8.86944 8.83917 6.93652 11.2553 6.93652Z" fill="white"/>
<path d="M19.6953 18.9319H26.8869V22.2292H27.0006C27.9955 20.3247 30.4401 18.335 34.1069 18.335C41.6964 18.335 43.1177 23.3378 43.1177 29.8472V43.0933H35.6134V31.3537C35.6134 28.568 35.5566 24.958 31.7192 24.958C27.8249 24.958 27.228 27.9995 27.228 31.1547V43.0933H19.6953V18.9319Z" fill="white"/>
</svg>
