<svg width="28" height="28" viewBox="0 0 28 28" fill="none" xmlns="http://www.w3.org/2000/svg">
<circle cx="14.0019" cy="13.9999" r="12.037" stroke="#0092ED" stroke-width="2"/>
<path d="M14.0852 6.77739C15.0646 6.7846 15.8496 7.5843 15.8424 8.57853C15.8352 9.56556 15.0358 10.3653 14.078 10.3581C13.0842 10.3509 12.2848 9.53674 12.292 8.54972C12.2992 7.56269 13.0986 6.77019 14.0852 6.77739ZM16.6129 18.773C16.5769 18.9243 16.4761 19.0828 16.3681 19.1981C15.7199 19.8537 14.9494 20.2427 14.0204 20.2571C13.5883 20.2643 13.149 20.2499 12.7241 20.1851C12.0112 20.0842 11.111 19.2053 11.2406 18.2615C11.327 17.6203 11.4278 16.9791 11.5359 16.3379C11.7231 15.2284 11.9247 14.1116 12.1192 13.0021C12.1336 12.9301 12.1336 12.858 12.1336 12.786C12.1336 12.3177 11.9896 12.1592 11.5287 12.0944C11.3342 12.0655 11.1254 12.0511 10.9453 11.9863C10.7149 11.907 10.6141 11.7269 10.6357 11.5396C10.6573 11.3451 10.7797 11.2226 11.0317 11.1722C11.1614 11.1434 11.2982 11.1434 11.435 11.1434C11.9824 11.1434 12.5225 11.1434 13.0698 11.1434C13.6459 11.1434 14.222 11.1434 14.8053 11.1434C15.223 11.1434 15.4679 11.3379 15.4823 11.7557C15.4895 12.1016 15.4319 12.4474 15.3671 12.7932C15.1438 14.0612 14.9062 15.3292 14.6757 16.6044C14.5965 17.0223 14.5101 17.4474 14.4669 17.8652C14.4453 18.067 14.4741 18.2831 14.5245 18.4776C14.5893 18.7442 14.7909 18.8883 15.0574 18.8595C15.2806 18.8306 15.5039 18.7514 15.7199 18.6721C15.8928 18.6073 16.044 18.4848 16.224 18.42C16.4617 18.3263 16.6777 18.5064 16.6129 18.773Z" fill="#0092ED"/>
<circle cx="14.0019" cy="13.9999" r="12.037" stroke="#0092ED" stroke-width="2"/>
<path d="M14.0852 6.77739C15.0646 6.7846 15.8496 7.5843 15.8424 8.57853C15.8352 9.56556 15.0358 10.3653 14.078 10.3581C13.0842 10.3509 12.2848 9.53674 12.292 8.54972C12.2992 7.56269 13.0986 6.77019 14.0852 6.77739ZM16.6129 18.773C16.5769 18.9243 16.4761 19.0828 16.3681 19.1981C15.7199 19.8537 14.9494 20.2427 14.0204 20.2571C13.5883 20.2643 13.149 20.2499 12.7241 20.1851C12.0112 20.0842 11.111 19.2053 11.2406 18.2615C11.327 17.6203 11.4278 16.9791 11.5359 16.3379C11.7231 15.2284 11.9247 14.1116 12.1192 13.0021C12.1336 12.9301 12.1336 12.858 12.1336 12.786C12.1336 12.3177 11.9896 12.1592 11.5287 12.0944C11.3342 12.0655 11.1254 12.0511 10.9453 11.9863C10.7149 11.907 10.6141 11.7269 10.6357 11.5396C10.6573 11.3451 10.7797 11.2226 11.0317 11.1722C11.1614 11.1434 11.2982 11.1434 11.435 11.1434C11.9824 11.1434 12.5225 11.1434 13.0698 11.1434C13.6459 11.1434 14.222 11.1434 14.8053 11.1434C15.223 11.1434 15.4679 11.3379 15.4823 11.7557C15.4895 12.1016 15.4319 12.4474 15.3671 12.7932C15.1438 14.0612 14.9062 15.3292 14.6757 16.6044C14.5965 17.0223 14.5101 17.4474 14.4669 17.8652C14.4453 18.067 14.4741 18.2831 14.5245 18.4776C14.5893 18.7442 14.7909 18.8883 15.0574 18.8595C15.2806 18.8306 15.5039 18.7514 15.7199 18.6721C15.8928 18.6073 16.044 18.4848 16.224 18.42C16.4617 18.3263 16.6777 18.5064 16.6129 18.773Z" fill="#0092ED"/>
</svg>
