<svg width="50" height="50" viewBox="0 0 50 50" fill="none" xmlns="http://www.w3.org/2000/svg">
<path d="M50 39.7385C50 45.3951 45.3951 50 39.7385 50H10.2615C4.57646 50 0 45.3951 0 39.7385V10.2615C0 4.60489 4.60489 0 10.2615 0H39.7385C45.4235 0 50 4.60489 50 10.2615V39.7385Z" fill="url(#paint0_radial_15802_37555)"/>
<path d="M24.99 9.49571C29.9738 9.49571 30.5588 9.51823 32.5287 9.60831C34.3504 9.69088 35.3353 9.99863 35.9944 10.2613C36.8682 10.6066 37.4902 11.012 38.1419 11.6725C38.7936 12.3331 39.2009 12.9636 39.5341 13.8493C39.7859 14.5174 40.0969 15.5157 40.1784 17.3622C40.2672 19.3589 40.2895 19.9519 40.2895 25.0036C40.2895 30.0552 40.2672 30.6482 40.1784 32.6449C40.0969 34.4914 39.7933 35.4898 39.5341 36.1578C39.1935 37.0435 38.7936 37.6741 38.1419 38.3346C37.4902 38.9952 36.8682 39.408 35.9944 39.7458C35.3353 40.001 34.3504 40.3163 32.5287 40.3988C30.5588 40.4889 29.9738 40.5114 24.99 40.5114C20.0062 40.5114 19.4212 40.4889 17.4514 40.3988C15.6296 40.3163 14.6447 40.0085 13.9857 39.7458C13.1118 39.4005 12.4898 38.9952 11.8381 38.3346C11.1864 37.6741 10.7791 37.0435 10.4459 36.1578C10.1941 35.4898 9.8831 34.4914 9.80164 32.6449C9.71278 30.6482 9.69056 30.0552 9.69056 25.0036C9.69056 19.9519 9.71278 19.3589 9.80164 17.3622C9.8831 15.5157 10.1867 14.5174 10.4459 13.8493C10.7866 12.9636 11.1864 12.3331 11.8381 11.6725C12.4898 11.012 13.1118 10.5991 13.9857 10.2613C14.6447 10.0061 15.6296 9.69088 17.4514 9.60831C19.4212 9.51073 20.0136 9.49571 24.99 9.49571ZM24.99 6.08789C19.9248 6.08789 19.2879 6.11041 17.2959 6.20048C15.3112 6.29056 13.956 6.61333 12.7712 7.07871C11.5419 7.55911 10.5051 8.21215 9.4684 9.26302C8.43165 10.3139 7.79479 11.3723 7.31344 12.6108C6.85431 13.8118 6.53588 15.1854 6.44702 17.2046C6.35815 19.2163 6.33594 19.8618 6.33594 24.9961C6.33594 30.1303 6.35815 30.7758 6.44702 32.795C6.53588 34.8067 6.85431 36.1803 7.31344 37.3888C7.78739 38.6349 8.43165 39.6857 9.4684 40.7366C10.5051 41.7875 11.5493 42.433 12.7712 42.9209C13.956 43.3863 15.3112 43.7091 17.3033 43.7991C19.2953 43.8892 19.9248 43.9117 24.9974 43.9117C30.0701 43.9117 30.6995 43.8892 32.6916 43.7991C34.6762 43.7091 36.0314 43.3863 37.2236 42.9209C38.4529 42.4405 39.4897 41.7875 40.5264 40.7366C41.5632 39.6857 42.2 38.6274 42.6814 37.3888C43.1405 36.1878 43.4589 34.8142 43.5478 32.795C43.6367 30.7758 43.6589 30.1378 43.6589 24.9961C43.6589 19.8543 43.6367 19.2163 43.5478 17.1971C43.4589 15.1854 43.1405 13.8118 42.6814 12.6033C42.2074 11.3573 41.5632 10.3064 40.5264 9.25552C39.4897 8.20464 38.4455 7.55911 37.2236 7.07121C36.0388 6.60582 34.6836 6.28305 32.6916 6.19298C30.6921 6.11041 30.0553 6.08789 24.99 6.08789Z" fill="white"/>
<path d="M24.9888 15.29C19.7013 15.29 15.4062 19.6361 15.4062 25.0031C15.4062 30.37 19.6939 34.7161 24.9888 34.7161C30.2836 34.7161 34.5713 30.37 34.5713 25.0031C34.5713 19.6361 30.2836 15.29 24.9888 15.29ZM24.9888 31.3008C21.5527 31.3008 18.7683 28.4785 18.7683 24.9956C18.7683 21.5127 21.5527 18.6904 24.9888 18.6904C28.4248 18.6904 31.2092 21.5127 31.2092 24.9956C31.2092 28.4785 28.4248 31.3008 24.9888 31.3008Z" fill="white"/>
<path d="M34.9513 17.1666C36.1864 17.1666 37.1877 16.1517 37.1877 14.8997C37.1877 13.6477 36.1864 12.6328 34.9513 12.6328C33.7161 12.6328 32.7148 13.6477 32.7148 14.8997C32.7148 16.1517 33.7161 17.1666 34.9513 17.1666Z" fill="white"/>
<defs>
<radialGradient id="paint0_radial_15802_37555" cx="0" cy="0" r="1" gradientUnits="userSpaceOnUse" gradientTransform="translate(14.6482 53.88) scale(66.2655)">
<stop offset="0.0969388" stop-color="#FFD879"/>
<stop offset="0.1539" stop-color="#FCCB76"/>
<stop offset="0.2583" stop-color="#F5AA6C"/>
<stop offset="0.3976" stop-color="#E9755E"/>
<stop offset="0.449" stop-color="#E45F58"/>
<stop offset="0.6786" stop-color="#D22A9C"/>
<stop offset="1" stop-color="#6968DF"/>
</radialGradient>
</defs>
</svg>
