<svg width="46" height="51" viewBox="0 0 46 51" fill="none" xmlns="http://www.w3.org/2000/svg">
<path d="M7.14264 41.1525C7.20173 41.1525 7.26081 41.1525 7.3002 41.1326C7.71378 43.5443 8.16674 45.9561 8.50154 48.3877C8.58032 49.0255 8.79696 49.2647 9.34839 49.3445C12.3222 49.7829 15.296 50.4407 18.2896 50.5802C21.4997 50.7197 24.7493 50.4606 27.9791 50.2015C29.5546 50.0819 31.0908 49.6235 32.6269 49.2647C32.8829 49.2049 33.2571 48.9458 33.2965 48.7066C33.6707 46.5939 33.9661 44.4612 34.3009 42.3484C30.0076 41.7505 26.8171 39.6377 24.828 35.7511C22.8192 31.8245 23.2525 27.9777 25.2613 24.111C21.9527 25.1873 19.3924 25.3069 15.9459 23.7921C15.7293 23.6924 15.4339 23.6725 15.1976 23.7124C13.1297 24.111 11.0027 24.3103 9.03329 24.988C3.10533 27.0808 0.505702 30.6486 0.111818 36.6679C-0.0654295 39.3786 0.0527357 42.1093 0.0724299 44.8399C0.0724299 45.0791 0.151207 45.4179 0.328454 45.5176C2.41604 46.9327 4.66118 47.9692 7.16234 48.7066C7.14264 46.1155 7.14264 43.6241 7.14264 41.1525ZM20.8892 22.1378C27.0929 22.2573 31.977 17.2545 31.9179 11.0558C31.8785 4.69757 27.0929 0.272747 21.4209 0.0136354C14.8628 -0.305271 9.95891 5.01648 9.93922 11.0757C9.91953 17.2146 14.9218 22.2972 20.8892 22.1378ZM45.0146 30.4692C45.2115 24.9282 40.6425 20.8422 36.1325 20.5432C29.6728 20.1047 25.6749 25.1474 25.4976 29.951C25.281 35.8906 29.8894 40.0364 34.7145 40.2955C40.6425 40.5945 45.1918 35.6713 45.0146 30.4692ZM41.4302 41.1127C39.2048 41.6508 37.0384 42.1691 34.7933 42.7072C34.7933 44.5409 34.7933 46.574 34.7933 48.9658C36.999 47.8695 39.0275 46.8929 41.0363 45.8763C41.2136 45.7767 41.4105 45.4777 41.4105 45.2585C41.4499 43.8234 41.4302 42.3883 41.4302 41.1127Z" fill="white"/>
<path d="M7.14099 41.1534C7.14099 43.6448 7.14099 46.1163 7.14099 48.7075C4.63982 47.97 2.39469 46.9335 0.307103 45.5184C0.149549 45.3988 0.0510783 45.06 0.0510783 44.8407C0.0510783 42.1101 -0.086781 39.3795 0.0904667 36.6687C0.484351 30.6494 3.08398 27.0816 9.03163 25.0087C11.001 24.3111 13.128 24.1317 15.1959 23.7331C15.4322 23.6933 15.7277 23.7132 15.9443 23.8128C19.3908 25.3476 21.9313 25.228 25.2596 24.1317C23.2508 27.9985 22.8176 31.8453 24.8264 35.7718C26.8155 39.6784 30.0059 41.7912 34.2993 42.3692C33.9842 44.482 33.6691 46.6146 33.2949 48.7274C33.2555 48.9466 32.8813 49.2257 32.6253 49.2855C31.0891 49.6442 29.5333 50.1027 27.9774 50.2223C24.7476 50.4614 21.5177 50.7405 18.2879 50.601C15.2944 50.4614 12.3206 49.8037 9.34674 49.3652C8.7953 49.2855 8.59836 49.0463 8.49989 48.4085C8.16508 45.9768 7.71212 43.5651 7.29854 41.1534C7.25915 41.1334 7.20007 41.1534 7.14099 41.1534Z" fill="#275BE1"/>
<path d="M20.8875 22.1387C14.9005 22.2982 9.91786 17.2156 9.93756 11.0767C9.95725 5.01745 14.8611 -0.304294 21.439 0.0146119C27.1109 0.293655 31.8769 4.71848 31.936 11.0567C31.9754 17.2555 27.0912 22.2583 20.8875 22.1387Z" fill="#275BE1"/>
<path d="M45.0126 30.4696C45.1898 35.6917 40.6602 40.5949 34.7125 40.276C29.8874 40.0169 25.279 35.8711 25.4956 29.9315C25.6729 25.128 29.6708 20.0853 36.1305 20.5238C40.6208 20.8427 45.1898 24.9087 45.0126 30.4696ZM38.1787 24.9087C37.0561 24.9087 36.032 25.3871 35.2443 26.2641C34.4565 25.3871 33.4324 24.9087 32.3098 24.9087C29.9662 24.9087 28.371 26.6228 28.371 29.1542C28.371 31.8848 30.2419 34.6553 34.6337 37.4457C35.0079 37.6849 35.4806 37.6849 35.8548 37.4457C40.2466 34.6553 42.1175 31.8848 42.1175 29.1542C42.1175 26.6029 40.5223 24.9087 38.1787 24.9087ZM35.2049 28.1974C35.3624 28.3768 35.6381 28.6957 35.8351 28.9548C36.0123 29.1741 36.1502 29.3933 36.2684 29.5927C36.5047 30.0112 36.6425 30.3501 36.6425 30.5892C36.6425 31.526 35.9926 32.2635 35.2246 32.2635C34.4565 32.2635 33.7869 31.526 33.7869 30.5892C33.7869 30.4098 33.8657 30.1707 34.0232 29.8518C34.2005 29.5129 34.3974 29.194 34.6337 28.895C34.811 28.6758 35.0079 28.4366 35.2049 28.1974ZM35.264 36.1701C31.3054 33.6388 29.7496 31.227 29.7496 29.1542C29.7496 27.3802 30.7737 26.3438 32.3295 26.3438C33.0779 26.3438 33.7278 26.6428 34.2595 27.2407C34.0232 27.4998 33.7869 27.7789 33.5702 28.0778C33.2945 28.4366 33.0385 28.8353 32.8219 29.2538C32.5855 29.7521 32.428 30.2105 32.428 30.649C32.428 32.3432 33.6687 33.7584 35.2246 33.7584C36.7804 33.7584 38.0211 32.3432 38.0211 30.649C38.0211 30.0112 37.7257 29.3335 37.2531 28.5961C37.1546 28.4366 37.0364 28.2971 36.938 28.1376C36.7213 27.8387 36.4456 27.5198 36.2093 27.2407C36.229 27.2208 36.2487 27.2009 36.2684 27.1809C36.2881 27.161 36.4062 27.0813 36.4259 27.0613C37.0561 26.563 37.5091 26.3637 38.1984 26.3637C39.7542 26.3637 40.7783 27.4002 40.7783 29.1741C40.7783 31.227 39.2225 33.6388 35.264 36.1701Z" fill="#275BE1"/>
<path d="M41.426 41.1133C41.426 42.369 41.4457 43.824 41.4063 45.2591C41.4063 45.4783 41.2094 45.7773 41.0321 45.8769C39.0233 46.8935 37.0145 47.8701 34.7891 48.9663C34.7891 46.5745 34.7891 44.5415 34.7891 42.7078C37.0342 42.1697 39.2006 41.6514 41.426 41.1133Z" fill="#275BE1"/>
</svg>
