<svg width="25" height="30" viewBox="0 0 25 30" fill="none" xmlns="http://www.w3.org/2000/svg">
<path d="M20.4342 24.2878L19.3375 23.5572L23.12 20.1255L25 14.5683L20.0761 16.6494L15.9355 21.4981L18.778 10.7823L13.205 0L7.99015 10.0959L9.53447 18.6421L6.96061 12.3985L0.313339 8.72325L0 16.6937L6.22202 23.2694L5.23724 24.6421L3.26768 23.9114L2.23814 25.7934L4.812 28.4502L7.99015 28.0074L12.3769 30L16.2265 28.738L18.6884 29.3137L23.299 25.7934L21.128 23.6679L20.4342 24.2878ZM9.51208 10.4502L11.3921 5.49079L11.4145 9.87453L16.0474 10.8266L11.4816 11.4465L11.1907 18.5978L9.51208 10.4502ZM0.98478 16.3616L4.76723 13.6827L3.22292 16.3395L6.1325 21.2767L0.98478 16.3616ZM15.8908 24.8413L13.4288 26.0148L10.1835 23.7343L7.47538 23.6236L10.385 22.5609L13.4288 24.2878L15.9579 23.5572L18.4199 24.9299L15.8908 24.8413ZM17.3008 20.9668L20.479 17.4243L23.8585 15.786L21.6428 18.0443C21.6428 18.0443 22.7171 19.4391 22.7171 19.5498C22.7171 19.6605 20.5909 18.8413 20.5909 18.8413L17.3008 20.9668Z" fill="white"/>
</svg>
