<svg width="27" height="28" viewBox="0 0 27 28" fill="none" xmlns="http://www.w3.org/2000/svg">
<path d="M20.8691 11.619C20.8439 11.619 20.8439 11.619 20.8187 11.619C21.9028 11.1574 22.5834 10.5931 22.5834 9.90055V7.07915C22.5834 5.97624 20.617 5.02722 17.7682 4.56554V2.84705C17.7682 1.28245 13.7849 0 8.89396 0C4.00306 0 0.0197571 1.28245 0.0197571 2.84705C0.0197571 5.95059 -0.207142 6.18143 0.876924 6.89961C1.80972 7.54084 3.22153 7.97687 4.80981 8.23336C4.80981 8.64375 4.80981 8.97719 4.80981 9.25933C2.49042 9.77231 0.977765 10.6187 0.977765 11.5934C0.977765 14.6969 0.750866 14.9278 1.83493 15.646C2.06183 15.7998 2.33915 15.9537 2.61647 16.082C2.41478 16.3128 2.31394 16.5693 2.31394 16.8002C2.31394 19.9037 2.08704 20.1345 3.17111 20.8527C5.26361 22.2634 9.59987 22.6738 13.3563 22.366C14.2387 25.1105 16.2555 27.0342 18.6253 27.0855H20.8439C24.0205 27.0342 26.592 23.5972 26.592 19.3651C26.592 15.1073 24.0457 11.6703 20.8691 11.619ZM20.7935 6.95091C20.7935 7.79733 17.6421 8.48985 13.7344 8.48985C12.8269 8.48985 11.9697 8.4642 11.1629 8.38726C14.6925 8.07947 17.6925 7.1048 17.743 5.6941C19.5834 5.97624 20.7935 6.43792 20.7935 6.95091ZM1.86014 2.69316C1.86014 1.84674 5.0115 1.15421 8.91918 1.15421C12.8269 1.15421 15.9782 1.84674 15.9782 2.69316C15.9782 3.53958 12.8269 4.2321 8.91918 4.2321C5.0115 4.2321 1.86014 3.56523 1.86014 2.69316ZM4.93587 10.3622C5.06192 10.67 5.28882 10.8752 5.69219 11.1317C7.38132 12.2603 10.5327 12.7733 13.6588 12.7476C12.5747 12.9015 11.289 12.9784 9.9024 12.9784C5.99472 12.9784 2.84336 12.2859 2.84336 11.4395C2.84336 11.0291 3.65012 10.6444 4.93587 10.3622ZM4.20476 16.6719C4.20476 16.6463 4.20476 16.6463 4.20476 16.6206C6.77626 17.3131 10.2806 17.4157 13.205 17.031C13.1294 17.3901 13.0538 17.7748 13.0033 18.1596C12.4487 18.1852 11.8688 18.2109 11.2638 18.2109C7.35611 18.2109 4.20476 17.5183 4.20476 16.6719ZM18.7262 25.5722C16.3564 25.5722 14.4403 22.7764 14.4403 19.3651C14.4403 15.9537 16.3564 13.158 18.7262 13.158C21.096 13.158 23.012 15.9537 23.012 19.3651C23.012 22.7764 21.096 25.5722 18.7262 25.5722Z" fill="white"/>
<path d="M19.1566 23.9047C18.8541 23.879 18.3751 23.6738 17.9213 23.2634C17.2154 22.5966 16.6608 21.5706 16.4591 20.4164C16.3583 19.8778 16.3331 19.2878 16.4087 18.6723L15.9297 18.2362L16.1314 17.4924L16.5347 17.8515C16.5599 17.8002 16.5599 17.7232 16.5852 17.6719C16.6104 17.5693 16.6356 17.4667 16.686 17.3642L16.2826 16.9794L16.4843 16.2356L16.9633 16.6973C17.2154 16.2099 17.5179 15.9022 17.8457 15.7226C18.4255 15.4405 19.1314 15.5687 19.8121 16.2099C20.2659 16.6203 20.5936 17.1333 20.8205 17.5437L20.2911 18.544C20.1398 18.2619 19.8625 17.8515 19.5348 17.5437C19.1818 17.2103 18.8289 17.082 18.5011 17.2872C18.3499 17.3642 18.2238 17.518 18.0978 17.7489L19.9129 19.4161L19.7112 20.1599L17.7953 18.3901C17.77 18.4927 17.7196 18.5953 17.6944 18.6979C17.6692 18.7492 17.6692 18.8005 17.644 18.8774L19.56 20.6729L19.3583 21.4167L17.5432 19.7239C17.5179 20.083 17.5179 20.3907 17.5936 20.6729C17.7196 21.2628 18.0221 21.7501 18.4003 22.0836C18.728 22.3914 19.1314 22.5453 19.3079 22.5709L19.1566 23.9047Z" fill="white"/>
</svg>
