<svg width="26" height="25" viewBox="0 0 26 25" fill="none" xmlns="http://www.w3.org/2000/svg">
<path d="M23.5106 3.27441H21.6317C21.235 3.27441 20.9219 3.59755 20.9219 4.00684V4.82542C20.9219 5.23471 21.235 5.55784 21.6317 5.55784H23.5106C23.9073 5.55784 24.2204 5.23471 24.2204 4.82542V4.00684C24.1996 3.59755 23.8864 3.27441 23.5106 3.27441Z" fill="white"/>
<path d="M25.995 16.9532C25.995 16.3285 25.7445 15.79 25.306 15.7038C25.6818 15.6392 25.995 15.1437 25.995 14.5406C25.995 13.8512 25.6818 13.2911 25.2225 13.2911C25.6401 13.1834 25.9741 12.6234 25.9741 11.9771C25.9741 8.68126 25.3895 9.02593 23.7819 6.24707H21.381C19.6482 9.26289 19.1888 8.63818 19.1888 11.9771C19.1888 12.6449 19.502 13.1834 19.9404 13.2911C19.5229 13.2911 19.168 13.8081 19.168 14.4544C19.168 15.0791 19.4185 15.6176 19.8569 15.6822C19.4811 15.7469 19.168 16.2423 19.168 16.8455C19.168 17.5348 19.4811 18.0949 19.9404 18.0949H19.9822C19.5646 18.0949 19.2097 18.6119 19.2097 19.2581V21.2184C19.2097 21.8647 19.5646 22.3817 19.9822 22.3817H25.2016C25.6192 22.3817 25.9741 21.8647 25.9741 21.2184V19.2581C25.9741 18.6119 25.6192 18.0949 25.2016 18.0949H25.2434C25.6401 18.1165 25.995 17.5995 25.995 16.9532Z" fill="white"/>
<path d="M0 9.84473L6.36759 12.0635V23.4374L0 21.2402V9.84473Z" fill="white"/>
<path d="M1.92072 5.83789L0 9.0476L6.5764 11.3095L8.518 8.09976L1.92072 5.83789Z" fill="white"/>
<path d="M7.55859 11.0508L9.18698 8.46582L10.9406 9.30595L7.55859 11.0508Z" fill="white"/>
<path d="M8.64296 7.4748L2.00391 5.23449V4.52364C2.00391 4.2436 2.27531 4.04972 2.52584 4.13589L8.03752 6.00998C8.41331 6.13923 8.66384 6.48391 8.66384 6.8932V7.4748H8.64296Z" fill="white"/>
<path d="M11.4836 21.2413V14.585C11.421 15.0373 11.3792 15.4035 11.3792 15.6405C11.3583 16.696 11.2957 19.518 11.2539 21.3275L11.4836 21.2413Z" fill="white"/>
<path d="M10.0843 18.4402C10.1052 17.277 10.126 16.1999 10.1469 15.6398C10.1678 14.6274 10.6271 12.1285 11.0655 10.0605L7.14062 12.0424V23.4163L10.0217 21.9515C10.0217 21.1114 10.0425 19.7543 10.0843 18.4402Z" fill="white"/>
<path d="M17.8695 15.6607C17.8486 14.282 16.8883 9.28438 16.429 7.71185C15.9905 6.13932 15.8026 2.95117 15.8026 2.95117C15.8026 2.95117 15.4686 3.16659 14.6753 3.16659C13.8193 3.16659 13.5061 2.95117 13.5061 2.95117C13.5061 2.95117 13.3391 6.13932 12.8798 7.71185C12.4205 9.28438 11.3766 14.282 11.3557 15.6607C11.3349 17.0393 11.2305 21.3907 11.2305 22.6186C11.2305 23.8465 12.0447 24.2773 12.8172 24.4281C13.4852 24.5573 14.3412 24.6004 14.5709 24.6004H14.5917C14.6126 24.6004 14.6126 24.6004 14.6126 24.6004C14.8423 24.5789 15.7191 24.5358 16.3663 24.4281C17.1388 24.2988 17.953 23.868 17.953 22.6186C18.0157 21.3907 17.8904 17.0393 17.8695 15.6607ZM15.8026 23.5449H14.4874C13.2973 23.5449 12.337 22.7263 12.337 21.7354V16.5008C12.337 15.0791 13.1721 10.7708 13.1721 10.7708C13.2347 10.62 13.4017 10.62 13.4017 11.1585C13.4017 11.1585 13.2347 14.7559 13.5896 21.4123C13.6314 22.037 14.0698 22.5971 14.7796 22.7694L15.907 23.0494C16.2202 23.1356 16.1576 23.5449 15.8026 23.5449Z" fill="white"/>
<path d="M14.6995 0C13.9271 0 13.3008 0.236936 13.3008 0.516977C13.3008 0.68931 13.3008 1.68023 13.3008 1.7664C13.3008 1.98182 13.3217 2.02489 13.4469 2.1326C14.0941 2.62805 16.0983 2.45572 16.0983 1.91718V0.516977C16.0983 0.215395 15.472 0 14.6995 0Z" fill="white"/>
</svg>
