<svg width="43" height="35" viewBox="0 0 43 35" fill="none" xmlns="http://www.w3.org/2000/svg">
<path d="M13.0672 19.1866C13.9596 19.3598 14.8953 19.2444 15.6582 18.7248H15.6438V18.5804C12.2467 18.3062 10.2747 16.0979 10.0156 12.937H9.87169C8.43227 15.0587 10.03 18.6093 13.0672 19.1866Z" fill="white"/>
<path fill-rule="evenodd" clip-rule="evenodd" d="M1.59188 0C1.16114 0 0.78705 0.157763 0.472142 0.472243C0.157149 0.787769 -0.000346692 1.16041 5.73006e-07 1.5913V27.0457C5.73006e-07 27.2938 0.0325126 27.5137 0.0996256 27.7041C0.16578 27.8948 0.277952 28.0479 0.435711 28.1641C0.593295 28.2804 0.729786 28.3756 0.846144 28.4501C0.962502 28.5247 1.15722 28.5741 1.43081 28.5991C1.70431 28.6241 1.89127 28.6408 1.99098 28.6492C2.09052 28.6569 2.30206 28.6569 2.62568 28.6492C2.94895 28.6408 3.13574 28.6366 3.18524 28.6366C3.18524 30.3928 3.80712 31.8927 5.0515 33.1357C6.29596 34.3784 7.7965 35 9.55546 35C11.3141 35 12.8156 34.3784 14.0594 33.1357C15.3034 31.8926 15.9257 30.3928 15.9257 28.6366H25.4816C25.4816 30.3928 26.1034 31.8927 27.3477 33.1357C28.5919 34.3784 30.0933 35 31.8517 35C33.6103 35 35.1116 34.3784 36.3559 33.1357C37.5999 31.8926 38.2221 30.3928 38.2221 28.6366H39.8146C39.8644 28.6366 40.051 28.6408 40.3748 28.6492C40.6982 28.6569 40.9096 28.6569 41.0092 28.6492C41.1088 28.6408 41.2953 28.6241 41.569 28.5991C41.8427 28.5741 42.0376 28.5246 42.1539 28.4501C42.27 28.3754 42.4069 28.2804 42.5644 28.1641C42.7223 28.0479 42.8341 27.8948 42.9006 27.7041C42.9671 27.5138 43 27.2939 43 27.0457C43 26.6148 42.8423 26.2416 42.5272 25.9273C42.2118 25.6121 41.8386 25.4547 41.4074 25.4547V17.5004C41.4074 17.3677 41.4116 17.0779 41.42 16.6302C41.4279 16.1827 41.4279 15.8677 41.42 15.6856C41.4117 15.5032 41.3906 15.2173 41.3577 14.8277C41.3248 14.4379 41.2706 14.1317 41.1961 13.9078C41.1214 13.6844 41.0052 13.4311 40.8477 13.1499C40.6898 12.8679 40.5033 12.6195 40.2878 12.4041L35.3605 7.48224C35.0454 7.16732 34.6266 6.90264 34.104 6.68689C33.5815 6.47149 33.096 6.36379 32.648 6.36379H28.6663V1.59104C28.6663 1.16024 28.5086 0.78716 28.1935 0.472243C27.8785 0.157763 27.5051 0 27.0738 0H1.59188ZM31.8521 31.8188C30.9894 31.8188 30.2427 31.5033 29.6126 30.8738C28.9819 30.2445 28.6666 29.4984 28.6666 28.6368C28.6666 27.7751 28.9819 27.0287 29.6126 26.3991C30.2427 25.7696 30.9894 25.4547 31.8521 25.4547C32.7148 25.4547 33.4615 25.7698 34.0918 26.3991C34.7219 27.0287 35.0373 27.7751 35.0373 28.6368C35.0373 29.4984 34.7222 30.2445 34.0918 30.8738C33.4614 31.5036 32.7148 31.8188 31.8521 31.8188ZM38.2224 15.9092H28.6666V9.54604H32.5985C32.8141 9.54604 32.9969 9.62039 33.1461 9.76962L37.9986 14.6167C38.1479 14.766 38.2224 14.9483 38.2224 15.1638V15.9092ZM9.55546 31.8188C8.69293 31.8188 7.94624 31.5033 7.31607 30.8738C6.68521 30.2445 6.37022 29.4984 6.37022 28.6368C6.37022 27.7751 6.68582 27.0291 7.31607 26.3991C7.94624 25.7696 8.69293 25.4547 9.55546 25.4547C10.4183 25.4547 11.1653 25.7698 11.7955 26.3991C12.4258 27.0287 12.741 27.7751 12.741 28.6368C12.741 29.4984 12.4257 30.2445 11.7955 30.8738C11.1653 31.5036 10.4183 31.8188 9.55546 31.8188ZM7.58302 14.5968C7.58302 11.6668 12.1316 5.12848 13.9021 2.81913C15.6725 5.14291 20.2211 11.6668 20.2211 14.5968C20.2211 16.6752 19.2279 18.5227 17.6877 19.6774C13.5422 22.7805 7.58302 19.8217 7.58302 14.5968Z" fill="white"/>
</svg>
