<svg width="19" height="33" viewBox="0 0 19 33" fill="none" xmlns="http://www.w3.org/2000/svg">
<path d="M4.93781 0C3.82744 0 2.92969 0.317743 2.92969 0.680879C2.92969 0.907838 2.92969 2.2469 2.92969 2.36038C2.92969 2.65543 2.95331 2.72351 3.14231 2.83699C4.06369 3.51787 6.96956 3.26822 6.96956 2.54195V0.680879C6.94593 0.317743 6.04818 0 4.93781 0Z" fill="white"/>
<path d="M2.05641 13.5269C3.5684 12.0744 5.52928 11.1892 7.6319 11.0077C7.56103 10.758 7.51378 10.531 7.4429 10.3495C6.80503 8.23875 6.54515 3.94922 6.54515 3.94922C6.54515 3.94922 6.07265 4.24427 4.91503 4.24427C3.68653 4.24427 3.23765 3.94922 3.23765 3.94922C3.23765 3.94922 2.97778 8.23875 2.33991 10.3495C2.10366 11.1665 1.72566 12.6645 1.34766 14.2986C1.58391 14.0262 1.82016 13.7766 2.05641 13.5269Z" fill="white"/>
<path d="M5.33853 22.7422C6.49615 23.8543 8.10265 24.2174 9.5674 23.8543C9.54378 22.6741 9.52015 21.6074 9.49653 20.9946C9.52015 20.0413 9.11853 17.7037 8.64603 15.4341C7.44115 15.3887 6.23628 15.7972 5.33853 16.6823C3.59028 18.3391 3.59028 21.0627 5.33853 22.7422Z" fill="white"/>
<path d="M8.50499 28.439C6.07162 28.439 3.80362 27.5312 2.079 25.8744C1.2285 25.0573 0.590624 24.1041 0.14175 23.1055C0.0944999 25.602 0 29.0972 0 30.3228C0 31.9796 1.18125 32.547 2.29162 32.7513C3.23662 32.9101 4.48875 32.9782 4.8195 33.0009C4.8195 33.0009 4.84312 33.0009 4.86674 33.0009C4.89037 33.0009 4.91399 33.0009 4.91399 33.0009C5.24474 32.9782 6.49687 32.9328 7.44187 32.7513C8.55224 32.5697 9.73349 31.9796 9.73349 30.3228C9.73349 29.8916 9.73349 29.188 9.70987 28.3482C9.28462 28.4163 8.88299 28.439 8.50499 28.439Z" fill="white"/>
<path d="M17.7653 27.0535L14.6705 24.0803C16.8912 21.1979 16.6313 17.1126 13.9145 14.5026C10.9141 11.6202 6.04734 11.6202 3.07059 14.5026C0.0702196 17.385 0.0702196 22.0604 3.07059 24.9201C5.78746 27.5301 10.04 27.7797 13.0403 25.6463L16.1352 28.6195C16.5368 29.0053 17.1983 29.0053 17.6 28.6195L17.7417 28.4833C18.1906 28.0748 18.1906 27.4393 17.7653 27.0535ZM4.32271 23.7172C2.00747 21.493 2.00747 17.907 4.32271 15.7055C6.63796 13.4813 10.3707 13.4813 12.6623 15.7055C14.9776 17.9297 14.9776 21.5157 12.6623 23.7172C10.3707 25.9187 6.61434 25.9187 4.32271 23.7172Z" fill="white"/>
</svg>
