<svg width="22" height="31" viewBox="0 0 22 31" fill="none" xmlns="http://www.w3.org/2000/svg">
<path fill-rule="evenodd" clip-rule="evenodd" d="M11 0C7.91096 3.9611 0 15.1265 0 20.1521C0 29.0894 10.3721 34.1398 17.5799 28.8418C20.2671 26.8612 22 23.7171 22 20.1521C22 15.1265 14.1142 3.98586 11 0ZM10.045 21.9023C10.045 21.0796 10.1901 20.3992 10.4802 19.8613C10.783 19.3234 11.2183 18.7301 11.7859 18.0814C12.2023 17.6068 12.505 17.2112 12.6943 16.8948C12.8961 16.5626 12.997 16.1908 12.997 15.7794C12.997 15.194 12.8078 14.7352 12.4293 14.403C12.0635 14.0549 11.5715 13.8809 10.9533 13.8809C10.3604 13.8809 9.83054 14.0391 9.36377 14.3555C8.90961 14.6561 8.52483 15.0833 8.20944 15.637L5.91972 13.9521C6.44958 12.9395 7.16235 12.1563 8.05806 11.6026C8.96638 11.0488 10.0387 10.772 11.275 10.772C12.7258 10.772 13.8864 11.1596 14.7569 11.9348C15.64 12.7101 16.0815 13.7859 16.0815 15.1624C16.0815 15.8111 15.9932 16.3806 15.8166 16.8711C15.6526 17.3615 15.4445 17.7808 15.1921 18.1289C14.9524 18.4611 14.6371 18.8488 14.246 19.2917C13.7792 19.8139 13.4386 20.2568 13.2241 20.6207C13.0097 20.9688 12.9024 21.396 12.9024 21.9023H10.045ZM11.561 26.7922C12.5429 26.7922 13.339 26.0075 13.339 25.0396C13.339 24.0716 12.5429 23.2869 11.561 23.2869C10.579 23.2869 9.78299 24.0716 9.78299 25.0396C9.78299 26.0075 10.579 26.7922 11.561 26.7922Z" fill="white"/>
</svg>
