<svg width="26" height="26" viewBox="0 0 26 26" fill="none" xmlns="http://www.w3.org/2000/svg">
<path d="M17.7312 14.7062C17.7707 14.2853 17.765 13.86 17.7135 13.4403C17.6515 12.9358 17.5237 12.4469 17.3348 11.9832C17.3112 11.9255 17.2869 11.8681 17.2615 11.8111C16.979 11.1785 16.5801 10.5967 16.0756 10.0922C16.0683 10.085 16.0609 10.0776 16.0535 10.0703C15.718 9.73839 15.3511 9.4561 14.9625 9.22266L13.1611 11.0048C12.9952 11.1689 12.887 11.3676 12.84 11.5881C13.2345 11.7162 13.6032 11.9316 13.9104 12.2356L13.9208 12.246C14.4318 12.7569 14.7122 13.4377 14.7104 14.1629C14.7084 14.888 14.4243 15.5673 13.9104 16.0758L7.76547 22.1552C6.70338 23.2059 4.90877 23.2059 3.84668 22.1552L3.83632 22.1448C3.32531 21.6339 3.04489 20.9531 3.04677 20.2279C3.04875 19.5028 3.33282 18.8235 3.84668 18.3151L7.36089 14.8384C6.94083 13.9095 6.71937 12.8931 6.71943 11.8422C6.71943 11.6115 6.73044 11.3825 6.75152 11.1557L1.70366 16.1497C0.605058 17.2366 0 18.6875 0 20.2351C0 21.7724 0.596832 23.2142 1.68162 24.2985C1.68888 24.3058 1.69635 24.3133 1.70366 24.3205C3.96576 26.5585 7.64644 26.5585 9.90859 24.3205L16.0536 18.2411C17.0126 17.2924 17.5954 16.0661 17.728 14.7403L17.7312 14.7062Z" fill="white"/>
<path d="M9.9458 15.9287C10.2813 16.2606 10.6482 16.5429 11.0368 16.7763L12.8382 14.9942C13.0041 14.8301 13.1124 14.6314 13.1593 14.4109C12.7649 14.2828 12.3961 14.0673 12.0889 13.7633L12.0785 13.7529C11.5674 13.242 11.2871 12.5612 11.289 11.8361C11.2909 11.111 11.575 10.4316 12.0889 9.92314L18.2339 3.84381C19.296 2.7931 21.0906 2.7931 22.1526 3.84386L22.1605 3.85173C22.674 4.36508 22.9544 5.04585 22.9525 5.77106C22.9505 6.49622 22.6664 7.17547 22.1525 7.68394L18.6383 11.1606C19.0584 12.0896 19.2798 13.106 19.2798 14.1568C19.2798 14.3875 19.2688 14.6164 19.2478 14.8432L24.2957 9.84925C25.3943 8.76238 25.9993 7.31151 25.9993 5.76385C25.9993 4.2266 25.4023 2.78487 24.3177 1.70044C24.3104 1.69312 24.303 1.68576 24.2956 1.67845C22.0335 -0.559482 18.3528 -0.559482 16.0907 1.67845L9.94585 7.75788C8.84725 8.84475 8.24219 10.2957 8.24219 11.8433C8.24219 13.3806 8.83902 14.8223 9.92381 15.9067C9.93107 15.914 9.93848 15.9214 9.9458 15.9287Z" fill="white"/>
</svg>
