<svg width="26" height="21" viewBox="0 0 26 21" fill="none" xmlns="http://www.w3.org/2000/svg">
<g clip-path="url(#clip0_15768_37794)">
<path fill-rule="evenodd" clip-rule="evenodd" d="M22.9872 0H3.01276C1.35146 0 0 1.36445 0 3.04173V13.925C0 15.6023 1.35146 16.9667 3.01276 16.9667H8.58461L12.2819 20.6998C12.6783 21.0999 13.3215 21.0999 13.7181 20.6998L17.4154 16.9667H22.9872C24.6485 16.9667 26 15.6023 26 13.925V3.04173C26 1.36445 24.6485 0 22.9872 0ZM17.1376 6.83661C17.2096 8.40534 16.3988 9.84369 15.0214 10.5905C14.4673 10.8911 14.1229 11.4521 14.1229 12.0547V12.0681C14.1229 12.6345 13.6647 13.0935 13.0994 13.0935C12.5341 13.0935 12.076 12.6345 12.076 12.0681L12.0759 12.0634C12.0738 11.9512 12.0353 9.87797 14.0471 8.78706C14.7277 8.41796 15.1285 7.70679 15.0929 6.93094C15.0461 5.91156 14.2124 5.07623 13.195 5.02936C12.0454 4.97649 11.1037 5.89133 11.1037 7.02667C11.1037 7.59304 10.6456 8.05206 10.0803 8.05206C9.51498 8.05206 9.05684 7.59304 9.05684 7.02667C9.05684 4.71013 10.985 2.87204 13.2889 2.98078C15.3658 3.07631 17.0422 4.759 17.1376 6.83661ZM14.1229 15.076C14.1229 15.6424 13.6647 16.1014 13.0994 16.1014C12.5341 16.1014 12.076 15.6424 12.076 15.076C12.076 14.5096 12.5341 14.0506 13.0994 14.0506C13.6647 14.0506 14.1229 14.5096 14.1229 15.076Z" fill="white"/>
</g>
<defs>
<clipPath id="clip0_15768_37794">
<rect width="26" height="21" fill="white"/>
</clipPath>
</defs>
</svg>
