<svg width="24" height="17" viewBox="0 0 24 17" fill="none" xmlns="http://www.w3.org/2000/svg">
<path d="M5.82916 6.44931C8.50773 6.44931 10.6755 8.62368 10.6368 11.2926C10.6025 13.8635 8.48627 15.9654 5.89784 15.9995C3.21068 16.0379 1.02146 13.8848 1.02146 11.2244L1 10.5422C1 5.41755 5.06508 1.23508 10.169 1.00059C10.4136 0.987802 10.6154 1.18392 10.6154 1.42694V3.30713C10.6154 3.5331 10.4351 3.72069 10.2076 3.73348C8.5249 3.83154 6.95811 4.52648 5.75618 5.72026C5.50721 5.96754 5.27971 6.23187 5.07366 6.509C5.32263 6.46637 5.5716 6.44931 5.82916 6.44931ZM18.1918 6.44931C20.8704 6.44931 23.0381 8.62368 22.9995 11.2926C22.9652 13.8635 20.8489 15.9654 18.2605 15.9995C15.5733 16.0379 13.3841 13.8848 13.3841 11.2244L13.3626 10.5422C13.3626 5.41755 17.4277 1.23508 22.5316 1.00059C22.7763 0.987802 22.978 1.18392 22.978 1.42694V3.30713C22.978 3.5331 22.7977 3.72069 22.5702 3.73348C20.8875 3.83154 19.3207 4.52648 18.1188 5.72026C17.8699 5.96754 17.6423 6.23187 17.4363 6.509C17.6853 6.46637 17.9342 6.44931 18.1918 6.44931Z" fill="white"/>
</svg>
