<svg width="50" height="50" viewBox="0 0 50 50" fill="none" xmlns="http://www.w3.org/2000/svg">
<path d="M50 39.7385C50 45.3951 45.3951 50 39.7385 50H10.2615C4.57646 50 0 45.3951 0 39.7385V10.2615C0 4.60489 4.60489 0 10.2615 0H39.7101C45.3951 0 49.9716 4.60489 49.9716 10.2615V39.7385H50Z" fill="#1DA1F2"/>
<path d="M19.0453 39.4822C32.1777 39.4822 39.3693 28.5954 39.3693 19.1582C39.3693 18.8455 39.3693 18.5328 39.3409 18.2486C40.7337 17.2537 41.956 15.9746 42.8941 14.5533C41.6149 15.1218 40.2221 15.4913 38.8008 15.6903C40.2789 14.8091 41.4159 13.4163 41.956 11.7392C40.5632 12.5635 39.0567 13.1605 37.408 13.4731C36.1004 12.0803 34.2528 11.2275 32.2062 11.2275C28.2551 11.2275 25.0714 14.4396 25.0714 18.3623C25.0714 18.9308 25.1283 19.4709 25.242 19.9825C19.3011 19.6698 14.0424 16.8273 10.5177 12.5067C9.89235 13.5584 9.55125 14.7807 9.55125 16.0883C9.55125 18.5613 10.802 20.75 12.7349 22.0291C11.5694 22.0007 10.4609 21.6596 9.4944 21.148C9.4944 21.1764 9.4944 21.2048 9.4944 21.2332C9.4944 24.7011 11.9674 27.5721 15.2363 28.2258C14.6394 28.3964 14.014 28.4817 13.3602 28.4817C12.9054 28.4817 12.4506 28.4248 12.0242 28.3395C12.9339 31.1821 15.5774 33.2571 18.7042 33.314C16.2312 35.2469 13.1613 36.3839 9.80708 36.3839C9.23857 36.3839 8.67007 36.3555 8.10156 36.2702C11.2568 38.3168 15.0089 39.4822 19.0453 39.4822Z" fill="white"/>
</svg>
